PathFileType	4	(X/Y/Z)	C:/Users/beibeiliu/ov580/test_trc/User2\sequence.10_training_dense_right.trc
DataRate	CameraRate	NumFrames	NumMarkers	Units	OrigDataRate	OrigDataStartFrame	OrigNumFrames
120	120	16	19	mm	120	364	484
Frame#	Time	ThumbCMC			ThumbMCP			ThumbIP			ThumbTip			IndexMCP			IndexPIP			IndexTip			MiddleMCP			MiddlePIP			MiddleTip			RingMCP			RingPIP			RingTip			PinkyMCP			PinkyPIP			PinkyTip			BackHand1			BackHand2			BackHand3	
		X0	Y0	Z0	X1	Y1	Z1	X2	Y2	Z2	X3	Y3	Z3	X4	Y4	Z4	X5	Y5	Z5	X6	Y6	Z6	X7	Y7	Z7	X8	Y8	Z8	X9	Y9	Z9	X10	Y10	Z10	X11	Y11	Z11	X12	Y12	Z12	X13	Y13	Z13	X14	Y14	Z14	X15	Y15	Z15	X16	Y16	Z16	X17	Y17	Z17	X18	Y18	Z18	
363	3.025	68.9098	-20.8206	109.79	63.5415	-53.7191	92.1006	70.6961	-84.8114	66.7653	93.2837	-96.5922	54.4941	81.0394	-17.4851	25.763	75.2186	-24.5414	0.994084	75.9438	-31.6508	-27.2352	119.968	-25.5688	19.2806	120.982	-37.1288	-7.36176	127.707	-53.6242	-33.9129	126.192	-57.7805	36.5657	115.95	-88.1166	43.1369	100.241	-90.2383	77.2006	141.7	-70.3167	61.7378	118.062	-86.9442	78.3676	99.8926	-67.6513	99.4888	138.438	-11.2593	78.2849	137.673	5.00147	110.512	107.185	8.07706	92.7858	
364	3.03333	67.2339	-16.8332	111.415	58.3087	-51.4578	101.811	57.7339	-85.127	82.1196	79.1988	-100.144	73.4582	76.6276	-23.8683	31.2948	67.0846	-32.4137	10.1495	58.9451	-42.0317	-16.698	110.477	-36.1112	22.737	110.176	-56.3085	-2.49088	111.2	-75.3307	-24.3674	114.969	-65.7995	44.0327	102.822	-93.7996	56.2281	86.6922	-90.4785	87.5063	129.951	-72.9594	69.4851	108.066	-89.1337	90.3282	94.2456	-64.8869	111.039	133.431	-12.0399	82.0995	135.576	5.43748	110.185	103.048	7.69747	92.6305	
365	3.04167	66.3207	-5.34853	118.508	48.4447	-42.1517	113.549	45.0913	-76.1138	99.1255	58.2377	-96.3024	91.287	68.8191	-23.5976	40.0465	54.2049	-35.893	15.1075	45.2883	-46.6102	-6.4732	95.5403	-43.2726	29.6512	89.56	-64.0943	8.63957	88.2726	-89.2675	-9.31017	100.178	-68.6239	54.0153	83.5837	-91.9523	64.4881	73.7339	-87.7348	99.1471	117.356	-79.1239	79.4204	90.6033	-86.7469	101.553	84.5573	-58.9148	117.974	129.888	-18.9024	81.016	136.84	4.49251	110.378	100.541	11.1557	95.4612	
366	3.05	67.4189	8.59074	122.552	40.0731	-26.2848	119.21	27.1125	-58.118	111.415	37.5537	-83.909	102.593	59.8593	-19.3095	40.6116	45.7686	-31.6611	21.3296	31.4507	-42.3848	0.785186	83.6807	-44.2199	39.0684	68.4722	-65.3798	17.985	59.2988	-90.2745	2.33686	82.6225	-71.0121	62.741	63.7695	-88.2622	77.9697	51.8279	-71.3215	111.531	96.8807	-74.8407	85.6852	69.6092	-76.832	107.785	71.2938	-48.229	122.285	120.3	-22.2242	83.5058	137.479	-3.72577	108.719	107.143	11.9993	94.0578	
367	3.05833	73.354	19.3246	120.094	39.6511	-2.89005	122.872	17.9269	-33.2867	118.051	21.3544	-60.8386	110.877	58.6505	-10.658	44.7455	37.1643	-17.4638	25.2705	23.0141	-28.0251	8.55882	71.3387	-40.1867	41.783	55.008	-58.2959	25.7662	35.8816	-83.7893	7.04098	66.4689	-62.1358	69.3765	38.3587	-70.6916	88.4144	37.0167	-50.5214	117.228	76.9205	-73.2352	94.1597	53.1362	-63.0803	113.502	60.6388	-36.9764	126.751	116.699	-26.6056	82.9146	138.656	-11.8223	108.95	106.183	12.3782	90.2291	
368	3.06667	82.5209	32.5658	117.5	44.969	15.7068	119.947	15.8789	-3.337	118.253	6.78585	-33.8738	112.419	57.1058	6.01338	42.9261	38.5029	-0.711551	26.0407	18.2707	-7.0038	8.15002	64.9412	-29.2194	44.2705	42.1367	-47.947	27.3047	18.1994	-64.1285	11.8321	52.5389	-46.7508	71.1227	23.5656	-48.9319	92.3814	26.868	-28.1907	120.347	61.3357	-59.8736	96.3061	37.98	-46.4302	116.265	51.6765	-20.6488	133.57	111.176	-27.5247	86.1659	136.748	-14.8789	107.742	116.592	9.69511	90.79	
369	3.075	92.131	40.7258	111.714	55.8454	38.0878	117.352	19.8118	19.6505	112.992	3.07609	-2.82636	111.991	59.317	10.9437	37.9164	40.1117	11.1087	21.9954	18.9251	6.69688	2.87865	59.0964	-22.4544	43.5764	31.8811	-32.0221	26.2937	6.76896	-41.5052	12.8838	38.6787	-33.5298	71.9225	15.2329	-25.6966	85.858	19.7625	-4.49242	114.18	47.9582	-41.8617	96.7102	26.7775	-24.9835	116.426	48.9888	-0.320239	131.942	106.665	-27.0961	88.1107	128.756	-21.0743	106.733	118.824	6.6044	86.8634	
370	3.08333	102.538	44.5828	103.925	65.4731	49.3129	109.595	26.2376	41.8056	106.207	10.4341	21.5464	105.881	66.7553	16.4956	35.3737	48.1815	20.9966	17.0504	28.7725	22.9835	-2.43496	55.6822	-15.8321	41.0994	29.2727	-20.6438	25.1347	1.76433	-25.7514	11.1657	38.6375	-20.7596	70.0868	12.044	-4.06374	86.017	22.0872	16.0302	113.513	37.4399	-28.238	95.4434	23.8597	-2.92311	110.874	44.1648	15.1312	127.712	98.73	-26.8053	87.3861	124.926	-25.2612	107.335	120.484	5.50521	85.489	
371	3.09167	114.632	39.8539	100.7	76.4801	56.572	98.5931	40.8613	55.945	96.9181	16.3555	43.2449	97.364	76.6401	21.8987	27.1276	55.8149	24.0624	7.284	39.3723	28.4037	-10.0239	57.9607	-9.94851	37.6913	29.8876	-8.35717	16.3094	1.36446	-10.2651	3.36706	39.6023	-9.58463	65.859	15.0197	10.4441	78.1826	27.7209	32.7676	103.307	36.1723	-14.6514	90.1904	24.7581	11.4845	104.571	48.1489	31.706	117.498	95.083	-28.2546	84.1688	123.377	-29.8354	108.712	121.588	-1.98433	80.4678	
372	3.1	124.656	39.7358	92.6505	88.9606	58.2557	88.1979	51.9224	63.5173	83.4231	25.738	53.7007	84.2751	82.053	13.9756	20.7387	69.3426	22.9009	-1.745	50.6639	25.532	-21.0488	58.6708	-10.1429	31.7691	35.4454	-6.61023	13.3866	6.46836	-4.69507	-3.70349	40.5012	-5.84644	60.1252	21.7765	24.8269	67.3325	33.4472	40.3071	93.248	35.5773	-8.697	85.4842	25.1151	19.6167	97.3504	52.5409	37.1526	110.642	94.8468	-28.5385	83.6836	118.667	-31.2715	107.675	126.562	-6.22197	75.1434	
373	3.10833	128.875	30.3141	85.1714	99.6332	53.8682	77.9827	64.0371	61.5285	70.7439	35.1511	55.6785	68.545	91.9007	5.21323	15.5585	81.1654	13.472	-9.13592	63.0735	14.7824	-30.5102	66.2011	-13.6669	22.8016	41.5851	-12.1829	8.06724	14.8637	-7.12784	-9.63045	45.7549	-4.53171	50.3358	29.3188	25.1978	56.4371	45.9954	45.6003	80.6362	37.2509	-5.09341	76.1407	30.3484	23.3343	86.9116	60.1482	38.8545	95.8925	93.0656	-30.8259	79.564	115.302	-36.7329	105.024	127.491	-13.8736	75.0036	
374	3.11667	136.843	23.2184	78.8783	108.564	49.5899	68.8845	73.016	57.4954	57.482	43.7432	49.0842	54.6515	102.288	-6.22629	12.838	91.0877	-0.786414	-13.4382	75.216	0.612189	-38.6163	72.3437	-23.3327	19.6715	51.353	-21.1227	-0.823377	23.8378	-17.2993	-18.3034	50.2078	-10.337	43.1816	36.4967	16.5798	43.9912	51.2769	39.6809	67.5416	42.1836	-9.82196	68.4618	39.3815	20.3006	72.6143	65.9516	33.9994	88.0965	99.2153	-39.95	81.3847	120.61	-41.5195	108.271	132.249	-24.2096	71.14	
375	3.125	142.1	16.91	76.7079	112.701	41.6479	60.4193	77.0552	49.8067	45.8533	50.2958	38.3639	44.9693	112.298	-14.5807	8.59382	105.536	-11.3834	-18.4841	89.189	-12.7505	-44.4662	82.9986	-33.384	15.5685	64.291	-31.7065	-6.19745	36.4299	-30.6489	-26.5497	60.9747	-18.7957	35.284	43.8087	9.88012	37.6376	62.17	33.9771	59.9288	54.1344	-18.0276	61.2095	46.7883	14.5975	65.1902	70.8704	29.276	80.5689	106.927	-43.1286	76.005	126.609	-44.4725	103.209	142.529	-25.7586	70.9267	
376	3.13333	146.205	14.4835	70.3357	119.074	38.4444	55.9574	82.393	38.5548	38.9613	55.5829	28.8487	35.5546	123.75	-22.4564	1.33208	115.665	-22.4606	-24.8289	106.339	-23.2542	-45.6306	93.7141	-42.7014	14.6103	74.2959	-42.7204	-10.9657	51.5926	-43.2907	-34.8775	70.1494	-27.344	28.7946	52.7853	-2.45465	29.5652	66.2809	23.0157	48.5474	61.3565	-24.3285	54.1867	53.0436	7.03927	59.8907	78.8227	20.2679	76.2408	113.888	-47.0866	78.8489	134.797	-45.7188	106.259	147.686	-33.0715	70.2132	
377	3.14167	152.341	14.8656	71.7221	121.312	31.2763	48.957	89.2925	29.8099	35.2106	62.3516	19.4728	28.742	135.593	-27.7406	1.98501	126.805	-31.1614	-24.5498	116.867	-35.1141	-45.3091	107.921	-50.3081	10.7697	85.3878	-55.0552	-12.7948	67.0356	-56.9596	-34.5935	81.323	-40.44	32.1363	61.0545	-10.0594	25.8479	72.5439	13.8091	45.0585	71.7585	-35.8612	54.3684	61.5074	-2.02247	52.9916	82.3075	13.2499	65.7941	123.066	-50.4381	76.9544	139.852	-47.9545	105.11	160.19	-31.3052	73.8009	
378	3.15	155.263	14.6599	72.4525	124.917	32.2883	47.8105	91.3657	22.4537	30.0289	70.7415	11.2469	26.7368	148.68	-29.5205	5.32828	139.998	-33.7231	-23.7813	133.916	-36.9202	-51.8975	123.76	-53.5424	10.4715	103.535	-62.2861	-11.2999	85.2093	-67.1793	-35.3943	96.0828	-45.5733	27.6686	69.4807	-21.4419	22.7231	79.2502	7.13368	40.9856	81.0055	-43.8373	50.3425	69.1195	-13.831	46.3137	86.2165	5.7592	66.1487	134.68	-51.447	76.1506	154.112	-43.6133	107.863	165.558	-29.8657	73.1174	
